<?xml version="1.0" standalone="no"?>
<!DOCTYPE svg PUBLIC "-//W3C//DTD SVG 20010904//EN"
 "http://www.w3.org/TR/2001/REC-SVG-20010904/DTD/svg10.dtd">
<svg version="1.0" xmlns="http://www.w3.org/2000/svg"
 width="373.680000pt" height="373.680000pt" viewBox="0 0 373.680000 373.680000"
 preserveAspectRatio="xMidYMid meet">
<metadata>
Created by potrace 1.16, written by Peter Selinger 2001-2019
</metadata>
<g transform="translate(0.000000,373.680000) scale(0.024000,-0.024000)"
fill="current" stroke="current">
<path d="M5662 9897 l-5662 -5662 0 -2115 0 -2115 5660 5660 5660 5660 1058
-1058 c581 -581 1062 -1057 1067 -1057 6 0 485 475 1065 1055 l1055 1055
-2120 2120 -2120 2120 -5663 -5663z"/>
<path d="M5845 5480 l-5480 -5480 2115 0 2115 0 3365 3365 3365 3365 1060
-1060 1060 -1060 1058 1058 1057 1057 -2118 2118 -2117 2117 -5480 -5480z"/>
<path d="M8140 3185 l-3185 -3185 2120 0 2120 0 1065 1065 1065 1065 1060
-1060 1060 -1060 1060 1060 1060 1060 -2120 2120 -2120 2120 -3185 -3185z"/>
</g>
</svg>
