<?xml version="1.0" standalone="no"?>
<!DOCTYPE svg PUBLIC "-//W3C//DTD SVG 20010904//EN"
 "http://www.w3.org/TR/2001/REC-SVG-20010904/DTD/svg10.dtd">
<svg version="1.0" xmlns="http://www.w3.org/2000/svg"
 width="697.000000pt" height="423.000000pt" viewBox="0 0 697.000000 423.000000"
 preserveAspectRatio="xMidYMid meet">

<g transform="translate(0.000000,423.000000) scale(0.100000,-0.100000)"
fill="#1E4D2B" stroke="none">
<path d="M1031 4203 c-19 -9 -54 -43 -78 -74 l-45 -57 -36 25 c-32 22 -45 24
-98 20 -72 -5 -136 -37 -213 -104 -98 -86 -258 -306 -247 -340 6 -20 64 -80
69 -72 190 298 341 437 478 439 35 0 37 -2 48 -44 46 -184 -80 -674 -290
-1126 -57 -123 -296 -598 -309 -615 -17 -20 -139 -273 -173 -355 -51 -124
-114 -326 -127 -403 -12 -75 -7 -93 36 -126 37 -29 44 -26 44 13 0 51 45 215
101 366 47 126 264 567 295 600 12 12 14 7 14 -40 0 -30 9 -122 20 -205 11
-82 25 -188 30 -235 13 -98 35 -150 92 -215 50 -57 180 -135 225 -135 25 0 39
9 70 46 21 25 50 60 64 77 l26 31 -8 -50 c-17 -103 -13 -126 30 -168 29 -29
44 -36 60 -31 35 11 83 77 160 219 41 75 76 134 78 132 14 -14 -48 -302 -69
-321 -7 -7 -92 -80 -188 -162 -267 -229 -468 -449 -577 -632 -69 -114 -78
-154 -78 -326 0 -137 2 -154 23 -193 32 -60 97 -120 143 -132 114 -31 191 55
333 370 21 47 90 198 153 335 142 309 245 543 267 613 18 52 47 82 217 221
l29 24 0 -51 c0 -45 4 -55 45 -100 89 -99 185 -118 302 -60 36 17 88 52 116
77 57 52 167 195 167 218 0 9 -16 31 -36 49 l-35 34 -42 -62 c-65 -99 -161
-189 -246 -231 -75 -38 -119 -45 -167 -27 -26 10 -27 12 -21 68 4 31 15 86 26
122 19 62 27 71 136 174 111 104 196 207 315 380 30 43 71 92 92 109 21 17 38
34 38 38 0 14 -72 79 -81 73 -5 -3 -47 -9 -93 -14 -162 -17 -178 -34 -358
-390 -96 -193 -115 -223 -156 -256 -26 -21 -77 -65 -114 -97 -75 -65 -75 -66
-57 43 6 36 19 123 29 193 l19 128 69 107 c38 59 72 115 75 125 5 13 -6 31
-38 62 -47 48 -76 55 -112 30 -23 -16 -57 -111 -68 -189 -5 -35 -24 -77 -73
-155 -37 -59 -101 -168 -142 -243 -41 -76 -75 -136 -76 -135 -2 1 10 61 25
132 20 94 36 144 59 183 42 69 84 169 117 277 l26 88 -37 38 c-21 22 -43 39
-49 39 -7 0 -37 -53 -67 -117 -55 -116 -75 -169 -101 -268 -10 -37 -37 -80
-108 -169 -148 -188 -160 -200 -195 -192 -16 4 -50 20 -76 36 -58 36 -61 48
-88 275 -11 94 -25 197 -30 230 -5 33 -10 85 -9 115 l0 55 105 70 c78 51 128
93 187 160 45 49 114 124 153 165 108 113 152 167 209 255 77 118 104 202 150
460 13 72 42 185 64 251 37 108 41 130 41 215 0 112 -17 156 -83 223 -61 60
-96 76 -202 92 -115 18 -133 17 -174 -3z m199 -73 c140 -18 158 -25 170 -68 5
-20 10 -71 10 -112 0 -62 -7 -95 -40 -190 -22 -63 -52 -176 -65 -250 -33 -178
-69 -311 -104 -385 -37 -79 -146 -222 -262 -343 -52 -53 -121 -129 -155 -168
-34 -38 -96 -93 -137 -122 -65 -45 -76 -50 -87 -37 -11 13 0 43 65 178 83 171
157 336 182 402 81 217 139 415 173 595 19 95 22 137 17 241 l-5 127 39 47
c40 49 73 78 99 88 8 3 15 6 15 6 0 1 39 -4 85 -9z m857 -1875 c-6 -13 -167
-232 -195 -265 -7 -8 8 28 35 80 29 57 68 115 99 147 50 53 71 66 61 38z
m-932 -1132 c-104 -233 -340 -743 -387 -836 -28 -53 -69 -118 -92 -143 -37
-41 -47 -47 -93 -51 l-52 -5 -8 38 c-4 22 -8 95 -8 164 0 112 3 132 27 188 48
114 154 262 316 441 77 85 334 322 341 315 2 -2 -18 -52 -44 -111z"/>
<path d="M3559 3649 c-19 -11 -46 -37 -59 -57 -14 -19 -46 -59 -71 -86 -48
-54 -146 -206 -219 -341 -24 -44 -62 -109 -85 -145 -52 -81 -96 -166 -130
-250 -15 -35 -40 -83 -56 -107 -38 -55 -37 -78 7 -120 31 -29 41 -33 68 -27
17 3 39 13 49 22 29 26 19 1 -22 -52 -136 -177 -253 -415 -346 -704 -40 -125
-85 -258 -100 -297 l-27 -70 42 -37 c33 -30 51 -38 81 -38 34 0 46 8 131 93
83 82 207 187 222 187 3 0 1 -12 -5 -26 -13 -37 -4 -58 39 -92 53 -41 91 -46
176 -21 61 18 80 29 131 80 62 61 75 69 75 46 0 -14 54 -68 84 -84 26 -14 81
0 179 46 99 46 177 109 254 204 31 40 98 111 147 159 l90 88 23 -28 c13 -15
32 -42 44 -60 l21 -33 -69 -72 c-142 -149 -252 -303 -260 -364 -4 -34 -1 -43
28 -72 52 -51 84 -64 138 -56 117 17 267 129 312 232 29 68 22 147 -21 216
l-31 50 53 56 c29 31 114 119 188 195 74 77 152 158 173 179 21 22 40 37 43
34 3 -3 -10 -50 -30 -104 -95 -263 -166 -609 -151 -727 6 -43 14 -58 51 -93
25 -24 50 -43 58 -43 7 0 26 19 41 42 28 42 124 138 138 138 4 0 5 -15 1 -34
-8 -46 17 -88 76 -127 39 -26 51 -30 90 -25 63 9 94 33 277 214 131 131 167
173 193 226 27 55 31 71 25 108 -4 24 -20 59 -37 81 -23 30 -27 41 -18 52 16
19 169 123 264 179 75 44 101 52 79 24 -18 -22 -127 -275 -183 -422 -35 -93
-54 -161 -58 -202 l-5 -62 39 -26 c21 -14 44 -26 50 -26 35 0 122 152 218 380
40 95 142 287 158 296 8 5 9 1 4 -12 -26 -69 -48 -172 -53 -254 -5 -85 -3
-100 16 -137 11 -23 35 -53 53 -66 115 -86 188 -77 378 49 191 127 332 269
401 402 l33 65 -39 34 c-21 18 -41 33 -45 33 -3 0 -16 -21 -29 -47 -77 -159
-295 -364 -504 -473 -64 -34 -85 -41 -125 -38 l-47 3 1 100 c2 111 23 197 95
377 25 64 38 111 34 125 -3 13 -23 35 -45 49 -35 24 -43 25 -69 14 -16 -6 -50
-31 -74 -55 l-46 -44 -3 27 c-2 18 -17 36 -45 55 -41 29 -42 30 -82 14 -57
-23 -313 -180 -404 -249 -60 -45 -85 -58 -113 -58 -19 0 -52 -9 -72 -19 -20
-11 -57 -25 -82 -31 -60 -16 -131 -90 -192 -201 -36 -66 -63 -99 -115 -144
-37 -32 -97 -86 -132 -119 l-63 -61 7 70 c17 170 101 486 174 656 22 50 44 96
48 100 5 5 92 25 193 44 492 95 860 218 1313 437 l187 91 -27 30 c-49 51 -54
51 -145 3 -227 -121 -634 -287 -893 -365 -116 -34 -266 -71 -415 -101 -58 -11
-115 -23 -127 -25 -13 -3 -23 -1 -23 4 0 6 29 62 64 125 35 62 87 162 116 220
76 157 79 206 13 251 -21 14 -41 25 -45 25 -4 0 -12 -19 -18 -42 -20 -75 -147
-278 -274 -438 -29 -36 -76 -95 -105 -132 -29 -38 -56 -68 -59 -68 -44 -1
-190 -33 -209 -46 l-25 -16 28 -29 c34 -35 60 -45 80 -28 8 6 16 10 18 8 2 -2
-67 -78 -153 -167 l-157 -164 -41 59 -41 58 53 80 c29 44 74 119 99 167 53
102 52 116 -13 166 -49 37 -91 41 -166 15 -58 -19 -160 -113 -171 -156 -10
-42 12 -101 57 -153 22 -25 39 -49 37 -53 -2 -4 -33 -34 -69 -67 -36 -32 -99
-97 -140 -144 -133 -152 -192 -204 -284 -249 -47 -22 -89 -41 -94 -41 -13 0
-21 37 -21 102 0 50 7 70 57 165 31 59 68 126 82 148 21 34 25 50 23 105 -2
57 -6 68 -30 88 -15 12 -35 25 -45 28 -30 10 -275 -182 -352 -276 -40 -48
-109 -112 -186 -171 -197 -153 -261 -204 -313 -253 -27 -25 -51 -44 -54 -42
-10 11 145 453 195 556 97 201 249 422 381 558 35 35 61 70 59 77 -3 6 -23 26
-44 42 l-38 31 -93 -45 c-51 -25 -96 -43 -99 -39 -10 9 57 152 109 232 27 41
74 121 105 177 31 56 72 127 91 157 92 145 106 166 121 176 9 7 38 41 65 78
28 36 62 70 78 77 34 14 35 20 6 46 -44 39 -61 43 -99 22z m781 -1243 c0 -6
-88 -157 -123 -213 -36 -57 -44 -59 -63 -20 -25 52 -13 95 43 150 50 50 143
104 143 83z m-854 -454 c-8 -16 -20 -51 -27 -78 -17 -73 -54 -130 -137 -216
-58 -60 -86 -81 -124 -94 -27 -9 -52 -14 -55 -10 -7 7 36 81 113 193 59 84
228 253 241 240 2 -3 -2 -18 -11 -35z m2048 -8 c11 -28 7 -48 -24 -113 -24
-51 -58 -91 -178 -211 -159 -158 -232 -220 -263 -220 -17 0 -19 5 -13 38 3 20
19 78 35 128 29 92 30 92 117 172 135 124 172 152 197 152 13 0 43 15 67 34
50 40 54 41 62 20z m-1160 -170 c12 -31 5 -100 -14 -142 -38 -85 -161 -184
-267 -216 -35 -11 -29 10 23 89 70 105 225 285 245 285 4 0 10 -7 13 -16z"/>
</g>
</svg>
